<svg xmlns="http://www.w3.org/2000/svg" viewBox="0 0 24 24" id="descending"><path d="M5 20c.6 0 1-.4 1-1v-1h2v1c0 .6.4 1 1 1s1-.4 1-1v-3c0-1.7-1.3-3-3-3s-3 1.3-3 3v3c0 .6.4 1 1 1zm2-5c.6 0 1 .4 1 1H6c0-.6.4-1 1-1zM5 7h1.6L4.3 9.3c-.3.3-.4.7-.2 1.1.1.4.5.6.9.6h4c.6 0 1-.4 1-1s-.4-1-1-1H7.4l2.3-2.3c.3-.3.4-.7.2-1.1-.1-.4-.5-.6-.9-.6H5c-.6 0-1 .4-1 1s.4 1 1 1zm11.3 11.7c.2.2.5.3.7.3s.5-.1.7-.3l2-2c.4-.4.4-1 0-1.4s-1-.4-1.4 0l-.3.3V6c0-.6-.4-1-1-1s-1 .4-1 1v9.6l-.3-.3c-.4-.4-1-.4-1.4 0s-.4 1 0 1.4l2 2z"></path></svg>